# xmcd CD database file
# Copyright (C) 1993-1998 Ti Kan
# 
# Track frame offsets:
#     182
#     18582
#     32325
#     48460
#     67477
#     86095
#     102707
#     121857
#     138090
#     154762
#     167975
#     184367
# 
# Disc length: 2626 seconds
# 
# Revision: 1
# Processed by: cddbd v1.4b41PL1 Copyright (c) Steve Scherf et al.
# Submitted via: DiscPlay 4.0.4
# 
DISCID=aa0a400c
DTITLE=Elmore James - Complete Fire and Enjoy Sessions Part 4
DYEAR=1900
DGENRE=
TTITLE0=She's Got To Go
TTITLE1=Hand In Hand #4
TTITLE2=Pickin' The Blues
TTITLE3=Twelve Year Old Boy
TTITLE4=Up Jumped Elmore
TTITLE5=I Believe
TTITLE6=I Gotta Go Now
TTITLE7=Make My Dream Come True
TTITLE8=Back In Mississippi (Conversation)
TTITLE9=Look On Yonder Wall (Wrong Lyrics)
TTITLE10=You Know You Done Me Wrong
TTITLE11=Black Snake Slide
EXTD=
EXTT0=
EXTT1=
EXTT2=
EXTT3=
EXTT4=
EXTT5=
EXTT6=
EXTT7=
EXTT8=
EXTT9=
EXTT10=
EXTT11=
PLAYORDER=
